<?xml version="1.0" standalone="no"?>
<!DOCTYPE svg PUBLIC "-//W3C//DTD SVG 20010904//EN"
 "http://www.w3.org/TR/2001/REC-SVG-20010904/DTD/svg10.dtd">
<svg version="1.0" xmlns="http://www.w3.org/2000/svg"
 width="512.000000pt" height="512.000000pt" viewBox="0 0 512.000000 512.000000"
 preserveAspectRatio="xMidYMid meet">
<metadata>
Created by potrace 1.14, written by Peter Selinger 2001-2017
</metadata>
<g transform="translate(0.000000,512.000000) scale(0.100000,-0.100000)"
fill="#000000" stroke="none">
<path d="M1605 4346 l-940 -543 -3 -1247 c-2 -1180 -1 -1247 15 -1253 10 -4
38 -19 64 -33 54 -32 127 -74 191 -109 26 -14 139 -77 250 -140 112 -63 221
-125 243 -137 22 -12 116 -65 209 -118 93 -53 171 -96 173 -96 2 0 20 -11 41
-23 20 -13 66 -40 102 -59 36 -20 97 -54 135 -76 108 -61 364 -206 418 -236
26 -14 52 -26 58 -26 8 0 95 48 444 246 22 13 51 29 65 37 58 31 316 176 455
255 83 47 170 96 195 110 25 14 80 45 123 69 42 24 99 55 125 70 93 52 119 66
232 131 63 36 131 74 150 85 19 10 52 28 73 40 l37 21 -2 1244 -3 1245 -940
543 c-517 299 -947 543 -955 543 -8 0 -438 -244 -955 -543z"/>
</g>
</svg>
